<svg width="100" height="100" viewBox="0 0 100 100" fill="none" xmlns="http://www.w3.org/2000/svg">
  <path d="M50 0H100V50C100 77.6142 77.6142 100 50 100C22.3858 100 0 77.6142 0 50C0 22.3858 22.3858 0 50 0Z" stroke="#B8860B" stroke-opacity="0.2"/>
  <path d="M50 10H90V50C90 72.0914 72.0914 90 50 90C27.9086 90 10 72.0914 10 50C10 27.9086 27.9086 10 50 10Z" stroke="#B8860B" stroke-opacity="0.2"/>
  <path d="M50 20H80V50C80 66.5685 66.5685 80 50 80C33.4315 80 20 66.5685 20 50C20 33.4315 33.4315 20 50 20Z" stroke="#B8860B" stroke-opacity="0.2"/>
  <path d="M50 30H70V50C70 61.0457 61.0457 70 50 70C38.9543 70 30 61.0457 30 50C30 38.9543 38.9543 30 50 30Z" stroke="#B8860B" stroke-opacity="0.2"/>
  <path d="M50 40H60V50C60 55.5228 55.5228 60 50 60C44.4772 60 40 55.5228 40 50C40 44.4772 44.4772 40 50 40Z" stroke="#B8860B" stroke-opacity="0.2"/>
</svg> 