<svg width="14" height="4" viewBox="0 0 14 4" fill="none" xmlns="http://www.w3.org/2000/svg">
<path d="M0.5 2C0.5 1.53587 0.684374 1.09075 1.01256 0.762563C1.34075 0.434375 1.78587 0.25 2.25 0.25C2.71413 0.25 3.15925 0.434375 3.48744 0.762563C3.81563 1.09075 4 1.53587 4 2C4 2.46413 3.81563 2.90925 3.48744 3.23744C3.15925 3.56563 2.71413 3.75 2.25 3.75C1.78587 3.75 1.34075 3.56563 1.01256 3.23744C0.684374 2.90925 0.5 2.46413 0.5 2ZM5.5 2C5.5 1.53587 5.68437 1.09075 6.01256 0.762563C6.34075 0.434375 6.78587 0.25 7.25 0.25C7.71413 0.25 8.15925 0.434375 8.48744 0.762563C8.81563 1.09075 9 1.53587 9 2C9 2.46413 8.81563 2.90925 8.48744 3.23744C8.15925 3.56563 7.71413 3.75 7.25 3.75C6.78587 3.75 6.34075 3.56563 6.01256 3.23744C5.68437 2.90925 5.5 2.46413 5.5 2ZM12.25 0.25C12.7141 0.25 13.1592 0.434375 13.4874 0.762563C13.8156 1.09075 14 1.53587 14 2C14 2.46413 13.8156 2.90925 13.4874 3.23744C13.1592 3.56563 12.7141 3.75 12.25 3.75C11.7859 3.75 11.3408 3.56563 11.0126 3.23744C10.6844 2.90925 10.5 2.46413 10.5 2C10.5 1.53587 10.6844 1.09075 11.0126 0.762563C11.3408 0.434375 11.7859 0.25 12.25 0.25Z" fill="white" fill-opacity="0.85"/>
</svg>
