<svg width="33" height="32" viewBox="0 0 33 32" fill="none" xmlns="http://www.w3.org/2000/svg">
<g id="Frame">
<g id="Group">
<g id="Group_2">
<path id="Vector" d="M27.9123 13.4972L24.6846 12.9697C24.4957 12.3219 24.2374 11.6994 23.914 11.1101L25.7982 8.42474C25.9506 8.20793 25.9244 7.91247 25.737 7.7246L23.6131 5.60178C23.4236 5.41282 23.1254 5.38824 22.9081 5.54498L20.2631 7.44607C19.6684 7.1173 19.0404 6.85625 18.3888 6.66674L17.8258 3.4522C17.7799 3.19115 17.5532 3 17.2878 3H14.2841C14.0165 3 13.7882 3.19388 13.745 3.45821L13.2229 6.65527C12.5676 6.84369 11.9384 7.10201 11.3459 7.42641L8.70806 5.54225C8.49015 5.3866 8.1936 5.41172 8.00409 5.60014L5.88127 7.72296C5.69395 7.91028 5.66773 8.2052 5.8201 8.42201L7.67641 11.0779C7.346 11.6759 7.08276 12.3088 6.89107 12.9675L3.70657 13.4978C3.44333 13.5415 3.25 13.7697 3.25 14.0363V17.04C3.25 17.3049 3.44005 17.5315 3.70056 17.5779L6.88506 18.1426C7.07566 18.7996 7.3389 19.4326 7.6704 20.0323L5.79116 22.6608C5.63606 22.8776 5.66063 23.1753 5.84905 23.3648L7.97241 25.4898C8.15974 25.6771 8.4552 25.7033 8.67201 25.5509L11.3317 23.6881C11.9286 24.0163 12.5594 24.2768 13.2131 24.4658L13.7461 27.6667C13.7893 27.9293 14.017 28.1221 14.2841 28.1221H17.2878C17.5527 28.1221 17.7793 27.9321 17.8252 27.6716L18.3959 24.4548C19.0507 24.2621 19.6782 23.9999 20.2692 23.6711L22.9479 25.5504C23.1653 25.7039 23.4602 25.6771 23.6481 25.4898L25.7714 23.3648C25.9604 23.1753 25.985 22.8765 25.8282 22.6592L23.9179 20.0066C24.2417 19.4168 24.499 18.7931 24.6863 18.1454L27.9183 17.5779C28.1799 17.5321 28.3699 17.3049 28.3699 17.04V14.0363C28.3705 13.7687 28.1766 13.5404 27.9123 13.4972ZM15.81 19.384C13.6986 19.384 11.987 17.6724 11.987 15.5611C11.987 13.4497 13.6986 11.7381 15.81 11.7381C17.9213 11.7381 19.6329 13.4497 19.6329 15.5611C19.6329 17.6724 17.9213 19.384 15.81 19.384Z" fill="white" fill-opacity="0.85"/>
</g>
</g>
</g>
</svg>
