<svg width="33" height="32" viewBox="0 0 33 32" fill="none" xmlns="http://www.w3.org/2000/svg">
<g id="task-icon">
<g id="Group">
<g id="Group_2">
<path id="task-icon_2" d="M16.1727 5C10.1406 5 5.25 9.89062 5.25 15.9227C5.25 21.9547 10.1406 26.8453 16.1727 26.8453C22.2047 26.8453 27.0953 21.9547 27.0953 15.9227C27.0953 9.89062 22.2047 5 16.1727 5ZM22.2775 13.8355L15.3962 20.7168C15.2251 20.8879 14.9939 20.9835 14.7527 20.9835C14.5115 20.9835 14.2794 20.8879 14.1092 20.7168L10.9662 17.5738C10.6103 17.2179 10.6103 16.6426 10.9662 16.2868C11.3221 15.9309 11.8974 15.9309 12.2532 16.2868L14.7527 18.7862L20.9905 12.5485C21.3464 12.1926 21.9216 12.1926 22.2775 12.5485C22.6334 12.9044 22.6334 13.4796 22.2775 13.8355Z" fill="white" fill-opacity="0.85"/>
</g>
</g>
</g>
</svg>
