<svg width="33" height="32" viewBox="0 0 33 32" fill="none" xmlns="http://www.w3.org/2000/svg">
<g id="timer-icon">
<g id="Group">
<g id="Group_2">
<path id="timer-icon_2" d="M15.8111 3C8.885 3 3.25 8.63446 3.25 15.5611C3.25 22.4877 8.885 28.1221 15.8111 28.1221C22.7371 28.1221 28.3721 22.4877 28.3721 15.5611C28.3721 8.63446 22.7371 3 15.8111 3ZM22.7661 8.83216L17.255 14.8019C17.3752 15.0297 17.4495 15.2858 17.4495 15.5611C17.4495 15.9761 17.29 16.3513 17.0355 16.6402L19.0191 20.2114C19.166 20.4746 19.0704 20.8072 18.8072 20.9536C18.7231 21.0006 18.6318 21.0224 18.5423 21.0224C18.35 21.0224 18.1644 20.9208 18.0644 20.7411L16.0814 17.1722C15.9929 17.1869 15.9039 17.1995 15.8111 17.1995C14.9061 17.1995 14.1727 16.466 14.1727 15.5611C14.1727 14.6561 14.9061 13.9227 15.8111 13.9227C16.0404 13.9227 16.2589 13.9707 16.4571 14.0559L21.9633 8.09051C22.1681 7.86987 22.5132 7.85513 22.7349 8.05993C22.9567 8.26473 22.9703 8.60988 22.7661 8.83216Z" fill="white" fill-opacity="0.85"/>
</g>
</g>
</g>
</svg>
